<svg width="34" height="35" viewBox="0 0 34 35" fill="none" xmlns="http://www.w3.org/2000/svg">
<path fill-rule="evenodd" clip-rule="evenodd" d="M0.292893 0.792893C0.683417 0.402369 1.31658 0.402369 1.70711 0.792893L17 16.0858L32.2929 0.792893C32.6834 0.402369 33.3166 0.402369 33.7071 0.792893C34.0976 1.18342 34.0976 1.81658 33.7071 2.20711L18.4142 17.5L33.7071 32.7929C34.0976 33.1834 34.0976 33.8166 33.7071 34.2071C33.3166 34.5976 32.6834 34.5976 32.2929 34.2071L17 18.9142L1.70711 34.2071C1.31658 34.5976 0.683417 34.5976 0.292893 34.2071C-0.0976311 33.8166 -0.0976311 33.1834 0.292893 32.7929L15.5858 17.5L0.292893 2.20711C-0.0976311 1.81658 -0.0976311 1.18342 0.292893 0.792893Z" fill="black"/>
</svg>
