<svg width="46" height="40" viewBox="0 0 46 40" fill="none" xmlns="http://www.w3.org/2000/svg">
<path fill-rule="evenodd" clip-rule="evenodd" d="M23.0219 39.0831C22.4286 39.0846 21.8409 38.9687 21.2926 38.7422C20.7443 38.5156 20.2461 38.1829 19.8269 37.7631L4.37689 22.3131C3.1564 21.0794 2.19362 19.6151 1.54466 18.0055C0.895696 16.396 0.573516 14.6734 0.59689 12.9381C0.608649 11.3479 0.934028 9.77558 1.55439 8.31128C2.17475 6.84699 3.0779 5.51947 4.21211 4.40476C5.34632 3.29006 6.68931 2.41007 8.16414 1.81521C9.63898 1.22034 11.2167 0.922285 12.8069 0.938113C14.4256 0.921809 16.031 1.23073 17.5281 1.84655C19.0251 2.46237 20.3832 3.37255 21.5219 4.52311L23.0219 6.02311L24.2519 4.79311C26.3758 2.61297 29.2178 1.27638 32.2515 1.03092C35.2852 0.785467 38.3052 1.64777 40.7519 3.45811C42.1447 4.53069 43.293 5.88769 44.1203 7.43875C44.9476 8.98982 45.435 10.6993 45.5499 12.4535C45.6649 14.2076 45.4048 15.9662 44.787 17.6119C44.1691 19.2577 43.2078 20.7529 41.9669 21.9981L26.2169 37.7631C25.7976 38.1829 25.2995 38.5156 24.7512 38.7422C24.2029 38.9687 23.6152 39.0846 23.0219 39.0831ZM12.7469 3.92311C10.3627 3.92068 8.07103 4.84594 6.35689 6.50311C5.48299 7.34393 4.78802 8.35269 4.31373 9.46881C3.83945 10.5849 3.59562 11.7854 3.59689 12.9981C3.58374 14.3321 3.83552 15.6554 4.33762 16.8913C4.83972 18.1273 5.58215 19.2513 6.52189 20.1981L21.9719 35.6481C22.1113 35.7887 22.2772 35.9003 22.46 35.9765C22.6428 36.0526 22.8389 36.0918 23.0369 36.0918C23.2349 36.0918 23.431 36.0526 23.6138 35.9765C23.7965 35.9003 23.9624 35.7887 24.1019 35.6481L39.8669 19.8681C40.7923 18.9232 41.5072 17.7931 41.9648 16.5522C42.4224 15.3113 42.6123 13.9876 42.5219 12.6681C42.4418 11.3351 42.0746 10.0351 41.4455 8.85714C40.8164 7.67918 39.9402 6.65104 38.8769 5.84311C37.0111 4.46745 34.7088 3.817 32.399 4.01293C30.0891 4.20887 27.9293 5.23783 26.3219 6.90811L24.0869 9.20311C23.9474 9.34371 23.7815 9.4553 23.5988 9.53145C23.416 9.6076 23.2199 9.64681 23.0219 9.64681C22.8239 9.64681 22.6278 9.6076 22.445 9.53145C22.2622 9.4553 22.0963 9.34371 21.9569 9.20311L19.4069 6.65311C17.6505 4.91203 15.28 3.93147 12.8069 3.92311H12.7469Z" fill="white"/>
</svg>
