<svg width="44" height="49" viewBox="0 0 44 49" fill="none" xmlns="http://www.w3.org/2000/svg">
<path fill-rule="evenodd" clip-rule="evenodd" d="M21.7992 0.800781C15.1718 0.800781 9.79922 6.17336 9.79922 12.8008C9.79922 19.4282 15.1718 24.8008 21.7992 24.8008C28.4266 24.8008 33.7992 19.4282 33.7992 12.8008C33.7992 6.17336 28.4266 0.800781 21.7992 0.800781ZM14.5992 12.8008C14.5992 8.82433 17.8228 5.60078 21.7992 5.60078C25.7757 5.60078 28.9992 8.82433 28.9992 12.8008C28.9992 16.7772 25.7757 20.0008 21.7992 20.0008C17.8228 20.0008 14.5992 16.7772 14.5992 12.8008Z" fill="white"/>
<path d="M12.1992 29.6008C9.01662 29.6008 5.96437 30.8651 3.71394 33.1155C1.4635 35.3659 0.199219 38.4182 0.199219 41.6008V46.4008C0.199219 47.7263 1.27374 48.8008 2.59922 48.8008C3.9247 48.8008 4.99922 47.7263 4.99922 46.4008V41.6008C4.99922 39.6912 5.75779 37.8599 7.10805 36.5096C8.45831 35.1594 10.2897 34.4008 12.1992 34.4008H31.3992C33.3088 34.4008 35.1401 35.1594 36.4904 36.5096C37.8406 37.8599 38.5992 39.6912 38.5992 41.6008V46.4008C38.5992 47.7263 39.6737 48.8008 40.9992 48.8008C42.3247 48.8008 43.3992 47.7263 43.3992 46.4008V41.6008C43.3992 38.4182 42.1349 35.3659 39.8845 33.1155C37.6341 30.8651 34.5818 29.6008 31.3992 29.6008H12.1992Z" fill="white"/>
</svg>
