<svg width="149" height="175" viewBox="0 0 149 175" fill="none" xmlns="http://www.w3.org/2000/svg">
<path d="M1.08516 31.5017C0.48516 27.9017 3.0852 20.2518 6.83515 20.2518C11.5852 19.2518 25.3352 28.0018 27.0852 48.2518C31.0852 48.2518 36.3352 52.2518 39.0852 57.5018C41.3352 56.3351 44.8352 54.0018 49.3352 55.7518C48.0852 47.2518 51.0852 30.5018 60.8352 28.0018C61.8352 19.0018 68.0852 1.75177 74.8352 1.00177C79.8352 1.00175 88.3352 18.7518 89.0852 28.0018C97.8352 31.7518 100.335 40.2518 100.335 55.7518C104.835 54.5018 108.085 56.2518 110.335 57.5018C113.335 53.5018 117.335 48.2518 122.585 48.2518C122.585 36.5018 131.335 20.5018 142.585 20.0018C145.085 20.0018 149.835 23.2518 148.335 35.2518L127.835 166.752C127.169 169.168 124.885 173.952 121.085 173.752C120.002 173.585 117.535 172.902 116.335 171.502C109.085 166.752 94.3352 161.502 75.8352 161.502C56.8352 162.002 45.785 163.252 30.5851 173.252C26.9851 175.252 23.5851 171.002 22.0851 168.502C15.4184 123.752 1.68516 35.1017 1.08516 31.5017Z" fill="black" stroke="black" stroke-width="0.5"/>
<path d="M28.335 163.002L8.08495 30.2518C12.4183 31.1684 20.885 37.9018 20.085 57.5018C24.335 56.7518 33.035 57.6018 33.835 67.0018C29.085 65.2518 21.485 65.1518 20.085 71.7518C21.6683 82.3351 27.085 103.502 36.085 103.502C42.335 102.002 43.585 94.0018 44.585 83.2518C39.585 83.2518 34.385 69.6518 44.585 65.2518C51.335 65.2518 54.835 77.2518 47.085 83.2518C48.085 87.1684 51.535 95.5018 57.335 98.5018C65.585 98.5018 71.585 62.7518 72.335 57.5018C71.4183 55.4184 68.885 51.0018 66.085 50.0018C63.985 49.2518 63.085 52.5018 62.085 60.0018C61.085 63.8351 59.585 71.5018 55.335 72.0018C55.9183 69.1684 56.835 62.7518 56.835 60.7518C56.835 59.3351 56.685 55.9518 56.085 53.7518C55.335 50.5018 55.335 45.7518 57.085 42.5018C58.085 39.5018 61.485 34.6018 67.085 39.0018C66.585 26.2518 68.085 20.7518 74.585 11.7518C79.835 17.2518 83.585 28.7518 81.835 39.0018C84.1683 37.1684 89.435 35.3018 91.835 42.5018C92.5016 43.2518 93.685 46.5518 93.085 53.7518C92.2516 57.1684 91.035 65.6018 93.835 72.0018C90.835 71.2518 88.335 66.0018 87.335 60.0018C86.7516 56.5018 85.335 49.2518 83.585 50.0018C81.835 50.0018 80.085 51.7518 77.085 57.5018C79.085 72.0018 85.085 99.2518 91.835 98.5018C97.585 95.7518 102.335 86.7518 101.335 83.2518C92.335 76.0018 98.335 64.5018 104.085 65.2518C112.085 67.0018 110.835 82.5018 104.085 83.2518C105.835 94.7518 108.335 103.502 113.085 103.502C121.685 103.902 127.085 82.4184 129.085 71.7518C128.335 65.0018 118.418 65.6684 115.335 67.0018C115.735 58.4018 123.585 57.5018 129.085 57.5018C127.585 40.5018 135.835 32.5018 141.085 30.2518L120.585 163.002C109.335 154.502 94.085 150.252 75.335 150.252C55.135 149.452 34.835 158.585 28.335 163.002Z" fill="url(#paint0_linear_57_813)" stroke="black" stroke-width="0.5"/>
<defs>
<linearGradient id="paint0_linear_57_813" x1="141.085" y1="87.3768" x2="8.08495" y2="87.3768" gradientUnits="userSpaceOnUse">
<stop offset="0.1" stop-color="#7E8081"/>
<stop offset="0.35" stop-color="#BCBCBC"/>
<stop offset="0.5" stop-color="#808184"/>
<stop offset="0.65" stop-color="#ADACAE"/>
<stop offset="0.9" stop-color="#89898C"/>
</linearGradient>
</defs>
</svg>
