<svg width="180" height="182" viewBox="0 0 180 182" fill="none" xmlns="http://www.w3.org/2000/svg">
<g clip-path="url(#clip0_215_96)">
<path d="M70.3925 24.3342C72.3838 26.3255 75.6152 26.3229 77.6098 24.3282C79.6045 22.3335 79.6072 19.1022 77.6158 17.1108C75.6244 15.1194 72.3931 15.1221 70.3984 17.1168C68.4037 19.1115 68.4011 22.3428 70.3925 24.3342Z" fill="white"/>
<path d="M55.9458 38.7809C57.9372 40.7723 61.1685 40.7696 63.1632 38.7749C65.1578 36.7802 65.1605 33.5489 63.1691 31.5575C61.1777 29.5661 57.9464 29.5688 55.9517 31.5635C53.9571 33.5581 53.9544 36.7895 55.9458 38.7809Z" fill="white"/>
<path d="M27.0524 67.6743C29.0438 69.6656 32.2751 69.663 34.2698 67.6683C36.2644 65.6736 36.2671 62.4423 34.2757 60.4509C32.2843 58.4595 29.053 58.4622 27.0583 60.4569C25.0637 62.4515 25.061 65.6829 27.0524 67.6743Z" fill="white"/>
<path d="M12.6057 82.1209C14.5971 84.1123 17.8284 84.1097 19.8231 82.115C21.8177 80.1203 21.8204 76.889 19.829 74.8976C17.8376 72.9062 14.6063 72.9089 12.6116 74.9036C10.617 76.8982 10.6143 80.1296 12.6057 82.1209Z" fill="white"/>
<path d="M99.262 24.3103C101.253 26.3017 104.485 26.2991 106.479 24.3044C108.474 22.3097 108.477 19.0784 106.485 17.087C104.494 15.0956 101.263 15.0983 99.268 17.093C97.2733 19.0876 97.2706 22.319 99.262 24.3103Z" fill="white"/>
<path d="M84.8153 38.757C86.8067 40.7484 90.038 40.7457 92.0327 38.7511C94.0274 36.7564 94.0301 33.5251 92.0387 31.5337C90.0473 29.5423 86.816 29.545 84.8213 31.5396C82.8266 33.5343 82.824 36.7656 84.8153 38.757Z" fill="white"/>
<path d="M55.9219 67.6504C57.9133 69.6418 61.1446 69.6391 63.1393 67.6445C65.134 65.6498 65.1367 62.4185 63.1453 60.4271C61.1539 58.4357 57.9226 58.4384 55.9279 60.433C53.9332 62.4277 53.9306 65.659 55.9219 67.6504Z" fill="white"/>
<path d="M41.4752 82.0971C43.4666 84.0885 46.698 84.0858 48.6926 82.0912C50.6873 80.0965 50.69 76.8652 48.6986 74.8738C46.7072 72.8824 43.4759 72.8851 41.4812 74.8797C39.4865 76.8744 39.4839 80.1057 41.4752 82.0971Z" fill="white"/>
<path d="M128.132 24.2865C130.123 26.2779 133.354 26.2752 135.349 24.2805C137.344 22.2859 137.346 19.0545 135.355 17.0631C133.364 15.0718 130.132 15.0744 128.138 17.0691C126.143 19.0638 126.14 22.2951 128.132 24.2865Z" fill="white"/>
<path d="M110.073 42.3449C114.056 46.3276 120.519 46.3223 124.508 42.333C128.497 38.3436 128.503 31.8809 124.52 27.8982C120.537 23.9154 114.074 23.9208 110.085 27.9101C106.096 31.8994 106.09 38.3621 110.073 42.3449Z" fill="white"/>
<path d="M82.9857 69.4324C85.9727 72.4195 90.8197 72.4155 93.8117 69.4235C96.8038 66.4315 96.8078 61.5845 93.8207 58.5974C90.8336 55.6103 85.9866 55.6143 82.9946 58.6063C80.0026 61.5984 79.9986 66.4454 82.9857 69.4324Z" fill="white"/>
<path d="M70.3448 82.0733C72.3362 84.0647 75.5675 84.062 77.5622 82.0673C79.5569 80.0727 79.5595 76.8413 77.5682 74.8499C75.5768 72.8586 72.3454 72.8612 70.3508 74.8559C68.3561 76.8506 68.3534 80.0819 70.3448 82.0733Z" fill="white"/>
<path d="M138.943 42.321C142.926 46.3038 149.388 46.2985 153.378 42.3091C157.367 38.3198 157.372 31.8571 153.389 27.8743C149.407 23.8916 142.944 23.8969 138.955 27.8863C134.965 31.8756 134.96 38.3383 138.943 42.321Z" fill="white"/>
<path d="M124.496 56.7677C128.479 60.7505 134.942 60.7452 138.931 56.7558C142.92 52.7665 142.926 46.3038 138.943 42.321C134.96 38.3383 128.497 38.3436 124.508 42.333C120.519 46.3223 120.513 52.785 124.496 56.7677Z" fill="white"/>
<path d="M95.6027 85.6611C99.5855 89.6439 106.048 89.6386 110.037 85.6492C114.027 81.6599 114.032 75.1972 110.049 71.2144C106.067 67.2317 99.604 67.237 95.6146 71.2264C91.6253 75.2157 91.6199 81.6784 95.6027 85.6611Z" fill="white"/>
<path d="M82.9618 98.302C85.9489 101.289 90.7959 101.285 93.7879 98.2931C96.7799 95.3011 96.7839 90.454 93.7969 87.467C90.8098 84.4799 85.9628 84.4839 82.9708 87.4759C79.9788 90.4679 79.9748 95.3149 82.9618 98.302Z" fill="white"/>
<path d="M156.977 53.1322C158.969 55.1236 162.2 55.1209 164.195 53.1263C166.189 51.1316 166.192 47.9003 164.201 45.9089C162.209 43.9175 158.978 43.9202 156.983 45.9148C154.989 47.9095 154.986 51.1408 156.977 53.1322Z" fill="white"/>
<path d="M138.919 71.1906C142.902 75.1734 149.364 75.168 153.354 71.1787C157.343 67.1893 157.348 60.7267 153.366 56.7439C149.383 52.7611 142.92 52.7665 138.931 56.7558C134.942 60.7452 134.936 67.2078 138.919 71.1906Z" fill="white"/>
<path d="M111.831 98.2782C114.818 101.265 119.665 101.261 122.657 98.2692C125.649 95.2772 125.653 90.4302 122.666 87.4431C119.679 84.4561 114.832 84.4601 111.84 87.4521C108.848 90.4441 108.844 95.2911 111.831 98.2782Z" fill="white"/>
<path d="M99.1905 110.919C101.182 112.91 104.413 112.908 106.408 110.913C108.403 108.918 108.405 105.687 106.414 103.696C104.423 101.704 101.191 101.707 99.1965 103.702C97.2018 105.696 97.1992 108.928 99.1905 110.919Z" fill="white"/>
<path d="M156.953 82.0018C158.945 83.9932 162.176 83.9905 164.171 81.9958C166.166 80.0012 166.168 76.7698 164.177 74.7784C162.185 72.7871 158.954 72.7897 156.959 74.7844C154.965 76.7791 154.962 80.0104 156.953 82.0018Z" fill="white"/>
<path d="M142.507 96.4485C144.498 98.4399 147.73 98.4372 149.724 96.4425C151.719 94.4479 151.722 91.2165 149.73 89.2251C147.739 87.2338 144.507 87.2364 142.513 89.2311C140.518 91.2258 140.515 94.4571 142.507 96.4485Z" fill="white"/>
<path d="M113.613 125.342C115.605 127.333 118.836 127.331 120.831 125.336C122.825 123.341 122.828 120.11 120.837 118.119C118.845 116.127 115.614 116.13 113.619 118.125C111.625 120.119 111.622 123.351 113.613 125.342Z" fill="white"/>
<path d="M99.1667 139.789C101.158 141.78 104.389 141.777 106.384 139.783C108.379 137.788 108.381 134.557 106.39 132.565C104.399 130.574 101.167 130.577 99.1727 132.571C97.178 134.566 97.1753 137.797 99.1667 139.789Z" fill="white"/>
<path d="M142.483 125.318C144.474 127.309 147.706 127.307 149.7 125.312C151.695 123.317 151.698 120.086 149.706 118.095C147.715 116.103 144.484 116.106 142.489 118.101C140.494 120.095 140.492 123.327 142.483 125.318Z" fill="white"/>
<path d="M156.93 110.871C158.921 112.863 162.152 112.86 164.147 110.865C166.142 108.871 166.144 105.639 164.153 103.648C162.162 101.657 158.93 101.659 156.936 103.654C154.941 105.649 154.938 108.88 156.93 110.871Z" fill="white"/>
<path d="M113.59 154.211C115.581 156.203 118.812 156.2 120.807 154.205C122.802 152.211 122.804 148.979 120.813 146.988C118.822 144.997 115.59 144.999 113.596 146.994C111.601 148.989 111.598 152.22 113.59 154.211Z" fill="white"/>
<path d="M99.1429 168.658C101.134 170.65 104.366 170.647 106.36 168.652C108.355 166.658 108.358 163.426 106.366 161.435C104.375 159.443 101.144 159.446 99.1488 161.441C97.1542 163.435 97.1515 166.667 99.1429 168.658Z" fill="white"/>
</g>
<defs>
<clipPath id="clip0_215_96">
<rect width="180" height="182" fill="white"/>
</clipPath>
</defs>
</svg>
